<svg width="140" height="223" viewBox="0 0 140 223" fill="none" xmlns="http://www.w3.org/2000/svg">
<path d="M127.68 19.2429C128.176 13.3572 128.772 7.47162 130.856 1.98502C131.054 1.48624 131.252 0.98744 131.55 0.68817C133.138 -1.00769 136.214 0.688189 136.71 2.98259C137.206 5.27698 136.214 7.57136 135.519 9.766C133.336 16.8487 134.626 24.53 133.237 31.8122C132.046 38.0968 128.871 43.8827 128.375 50.2671C129.962 45.6783 131.55 41.1893 133.138 36.6005C134.031 34.1065 135.618 31.2136 138.198 31.5129C137.801 36.5007 137.305 41.5883 136.908 46.5761C136.71 48.8705 136.511 51.3644 135.321 53.4593C130.558 62.2378 124.505 59.0456 124.703 50.4666C124.902 40.1917 126.589 29.6175 127.482 19.3426" fill="#91B3C7"/>
<path d="M98.7057 153.615C101.782 150.722 104.163 148.328 106.346 144.736C106.445 144.537 106.545 144.337 106.842 144.337C107.041 144.337 107.14 144.337 107.338 144.337C108.132 144.637 109.125 143.938 109.918 143.839C109.522 147.131 102.576 151.52 104.163 155.111C105.056 157.206 110.414 157.006 112.201 154.213C113.094 152.817 113.094 150.622 113.391 149.026C113.888 146.731 113.59 144.238 113.59 141.843C113.59 142.043 113.59 142.143 113.59 142.342C114.483 142.542 115.773 142.542 116.269 141.744C116.864 142.542 115.872 142.841 116.07 143.839C116.368 145.933 117.658 146.233 116.567 148.228C115.674 149.924 115.177 151.919 115.773 153.914C116.666 156.807 119.543 157.705 119.146 158.702C118.849 159.6 116.467 159.201 111.109 158.702C106.743 158.403 104.56 158.203 101.98 158.203C97.3166 158.203 95.1335 158.802 94.8358 158.004C94.5381 157.206 96.225 155.909 98.6065 153.615" fill="#91B3C7"/>
<path d="M87.9892 102.34C89.3784 99.9458 90.7677 97.5517 92.1568 95.2573C89.18 95.8558 87.7908 98.25 84.4171 99.8461C83.3256 100.345 82.1349 100.644 79.8526 101.143C73.7005 102.54 72.3113 101.442 69.533 103.138C68.6399 103.637 67.4492 104.734 65.1669 106.829C63.6785 108.126 63.3809 108.525 62.3886 109.423C59.4118 112.216 58.7172 111.817 56.0381 114.111C52.962 116.805 52.3667 118.7 48.993 120.097C48.0007 120.595 47.4053 120.595 46.9092 120.595C44.2301 120.296 42.0471 116.406 41.5509 113.413C41.154 110.72 41.9478 108.824 43.2377 105.931C44.5277 103.138 46.3138 99.048 50.6798 95.6563C55.2442 92.2646 60.4041 92.3644 65.8616 91.9653C71.9145 91.5663 78.1658 92.0651 83.8217 94.559C79.5549 92.6636 75.1889 90.7682 70.6244 89.8704C63.9762 88.4738 56.0381 89.2719 50.4814 93.3619C43.6347 98.3497 36.5896 108.126 39.4672 114.81C40.4594 117.204 42.6424 118.9 42.5432 121.992C42.3447 125.384 42.0471 126.98 42.0471 126.98C41.7494 128.277 41.4517 129.274 42.0471 129.773C42.5432 130.272 43.6347 129.773 44.1308 129.773C52.2674 126.88 53.4582 126.481 55.0458 126.381C55.2443 126.381 55.0458 126.381 61.5948 127.179C63.6786 127.379 64.9686 127.578 65.7624 128.576C66.1593 129.075 66.5562 129.474 67.2508 129.973C68.0446 130.571 69.0368 130.97 70.0291 131.17C72.7082 131.768 75.6851 131.868 76.1813 133.364C78.1658 130.272 72.2122 130.272 70.7238 128.576C69.7315 127.479 68.5407 126.681 67.0523 126.481C64.4724 126.182 63.2816 125.284 60.2056 123.488C59.7094 123.189 57.725 122.092 57.8242 120.994C57.8242 120.196 59.2133 120.196 60.0072 119.099C60.9002 117.802 60.2056 116.705 60.7017 115.109C61.0986 113.413 62.3887 112.814 64.7701 110.919C68.4415 108.026 68.3423 107.128 70.3268 105.831C73.2044 103.737 78.6619 102.24 81.9364 104.036C86.5008 106.53 90.6684 109.822 95.3321 112.316C99.8965 114.81 104.759 116.805 109.919 117.403C110.911 117.503 112.796 117.902 113.689 117.403C114.681 116.805 114.284 116.206 114.781 115.508C115.376 114.81 114.781 114.81 115.773 114.211C116.666 113.712 119.345 114.211 120.337 114.111C121.925 114.111 123.513 114.111 125.001 113.513C128.772 112.316 131.252 108.625 132.145 104.734C133.038 100.844 132.443 96.8534 131.947 92.9629C131.451 89.0724 130.855 85.0822 131.55 81.1917C131.947 78.997 132.84 76.9021 132.443 74.7075C132.046 72.5128 129.665 70.6175 127.779 71.615" fill="#91B3C7"/>
<path d="M97.3168 197.009C94.2407 198.505 91.3632 200.201 88.5849 202.196C86.3026 200.301 83.425 198.306 80.7459 198.106C78.2652 197.907 76.1814 199.203 73.7008 199.104C74.1969 200.999 74.5937 202.994 75.0898 204.989C72.4107 203.692 71.6169 200.899 68.9378 198.505C68.0448 197.707 67.0525 197.208 65.0679 196.31C60.0073 193.817 58.4197 194.615 56.4352 192.52C55.8398 191.821 55.1453 190.624 53.8553 188.33C53.0615 186.834 52.9623 186.435 52.3669 185.537C50.7793 182.644 50.1838 182.843 48.7946 180.449C47.207 177.756 47.4054 176.06 45.3217 174.464C44.7263 173.965 44.3295 173.865 43.9326 173.865C41.8488 173.865 38.9712 176.658 37.4828 179.152C36.1928 181.347 36.1928 183.043 36.0936 185.736C36.0936 188.43 35.8951 192.42 38.1773 196.211C40.0627 199.403 42.5434 200.899 45.5202 202.595C50.1839 205.289 54.649 206.186 59.1143 206.984C66.854 208.381 71.3193 207.982 71.3193 208.181C71.3193 208.68 54.8476 212.172 43.4364 204.69C39.765 202.296 37.8797 199.503 37.1851 198.405C33.6129 192.619 32.0253 182.943 36.4905 177.756C38.0782 175.96 40.2611 174.763 41.1542 172.269C42.1464 169.576 42.4442 168.279 42.4442 168.279C42.6426 167.281 42.7418 166.483 43.2379 166.184C43.734 165.885 44.4286 166.184 44.7263 166.483C49.8861 169.576 50.7793 169.975 51.8708 170.274C51.97 170.274 51.8708 170.274 57.3283 170.274C59.1143 170.274 60.2058 170.274 61.0988 169.576C61.595 169.276 61.9919 168.877 62.7858 168.578C63.6788 168.179 64.5718 167.98 65.4648 167.88C67.8463 167.68 70.4263 167.88 71.2201 166.783C72.1131 169.576 67.0525 168.877 65.2664 170.174C64.1749 170.972 62.8849 171.571 61.6942 171.471C59.5112 171.471 58.3204 171.97 55.2444 173.167C54.7483 173.366 52.863 174.065 52.5653 174.963C52.3668 175.661 53.3591 175.761 53.756 176.858C54.1529 178.055 53.1607 178.953 52.9622 180.449C52.7638 182.045 53.5576 182.744 54.9468 184.739C57.1298 187.931 56.8321 188.729 58.0228 190.325C60.5035 193.617 64.7703 194.315 68.7394 195.014C75.4869 196.111 82.6311 196.31 89.8747 197.308C92.3554 197.707 94.9353 197.408 97.416 197.009" fill="#91B3C7"/>
<path d="M78.7611 134.162C82.3333 135.259 85.7069 136.656 88.9814 137.853C90.6683 138.452 92.3552 139.05 93.9428 139.649L98.9042 141.245C102.179 142.242 105.652 143.24 109.224 142.841C112.796 142.542 116.17 141.145 119.047 139.15C121.925 137.155 124.505 134.761 126.787 132.267C129.069 129.673 130.855 126.78 132.443 123.688C135.718 117.603 137.603 110.819 138.794 103.537H139.191C140.877 110.819 139.885 118.8 136.611 125.783C134.924 129.274 132.542 132.466 129.764 135.06C128.375 136.357 126.886 137.654 125.299 138.651C123.711 139.649 121.925 140.546 120.238 141.245C116.666 142.641 113.094 143.639 109.422 144.237C105.751 144.936 101.881 145.335 98.1104 144.736C94.3398 144.138 90.7675 142.641 87.493 140.846C84.2185 139.05 81.2417 136.955 78.4634 134.461L78.6619 134.062L78.7611 134.162Z" fill="#91B3C7"/>
<path d="M106.346 172.768C109.323 173.865 112.002 176.16 113.193 179.152C113.888 180.649 114.086 182.245 114.185 183.941C114.185 184.34 114.185 184.739 114.185 185.138C114.185 185.537 114.185 185.936 113.987 186.335C113.987 186.734 113.788 187.133 113.689 187.532L113.292 188.729C112.101 191.821 109.422 194.216 106.247 195.413C103.27 196.41 100.293 197.507 97.4158 198.804C94.5382 200.101 91.7599 201.498 89.18 203.194C86.6001 204.889 84.0202 206.685 81.8372 208.78C79.5549 210.875 77.6696 213.369 75.3874 215.663C73.1052 218.057 70.1283 219.853 66.9531 221.05C60.6025 223.245 54.0535 223.045 47.8022 222.945C41.4516 222.746 35.2003 223.145 28.7506 222.746C25.5753 222.546 22.4 222.048 19.324 221.15C16.2479 220.352 13.2711 218.756 10.7905 216.661C9.59972 215.563 8.40897 214.466 7.4167 213.169C6.42443 211.872 5.53141 210.476 4.83682 208.979C4.14222 207.483 3.74529 205.887 3.44761 204.191C3.24915 202.495 3.44766 200.799 3.74534 199.203C4.53916 195.812 6.92054 193.318 7.5159 190.525C7.81359 189.128 7.61516 187.831 6.92056 186.634C6.22597 185.437 5.13447 184.439 3.94375 183.641C3.64606 183.442 3.34838 183.242 2.95147 183.043L2.45534 182.744C2.25688 182.644 2.05845 182.444 1.86 182.345C0.966951 181.746 0.371515 180.748 0.17306 179.751C-0.124621 178.753 -0.0253214 177.656 0.371588 176.658C0.570042 176.16 0.768448 175.761 1.06613 175.461L1.66147 174.364C3.44756 171.571 5.63056 169.077 8.11124 166.882C13.0726 162.493 18.9271 159.401 25.0792 157.306C31.2313 155.111 37.7803 154.313 44.1308 153.914C50.5806 153.615 56.9312 153.714 63.2817 154.014C66.457 154.213 69.533 154.213 72.8075 154.513C73.6013 154.513 74.3952 154.612 75.189 154.812C75.5859 154.812 75.9828 154.912 76.3797 155.011H76.975C77.2727 155.211 77.5704 155.211 77.7689 155.41C78.8604 155.909 79.6542 157.006 79.7534 158.104C79.8526 159.201 79.4557 160.398 78.5626 161.096C78.3642 161.296 78.0665 161.495 77.9673 161.495C77.868 161.495 77.6696 161.695 77.5703 161.795C77.2727 161.994 77.0743 162.194 76.8758 162.393C76.4789 162.892 76.3797 163.491 76.3797 164.089C76.3797 165.286 77.4712 166.284 78.8603 166.882C80.2495 167.481 81.7379 167.78 83.3256 167.98C84.814 168.079 86.5009 168.179 88.0885 168.279C94.4391 168.977 100.591 170.573 106.545 172.768M106.247 173.067C100.293 170.972 94.0421 169.376 87.7908 169.077C86.2032 169.077 84.7147 169.077 83.0278 169.077C81.4402 169.077 79.7534 168.778 78.1658 168.179C77.372 167.88 76.5781 167.481 75.8835 166.783C75.1889 166.184 74.6927 165.186 74.5935 164.189C74.5935 163.191 74.6928 162.194 75.2882 161.396C75.5859 160.997 75.8836 160.598 76.2805 160.298C76.4789 160.099 76.6773 159.999 76.8758 159.899C77.0743 159.8 77.0743 159.7 77.1735 159.6C77.4712 159.301 77.6696 158.802 77.5703 158.303C77.5703 157.804 77.1735 157.505 76.7766 157.405C76.7766 157.405 76.5781 157.405 76.4789 157.405H75.8835L74.6928 157.206C73.899 157.206 73.1052 157.106 72.4106 157.106H62.984C56.6334 156.907 50.3821 156.707 44.1308 157.106C41.0547 157.306 37.8795 157.605 34.8034 158.104C31.7274 158.603 28.7506 159.301 25.7737 160.298C19.9193 162.194 14.3627 165.087 9.69898 169.077C7.41675 171.072 5.33288 173.366 3.64602 175.86L3.05068 176.858C2.85222 177.157 2.65377 177.556 2.55454 177.756C2.35609 178.255 2.25688 178.753 2.45534 179.352C2.55456 179.851 2.85229 180.349 3.2492 180.649C3.34843 180.649 3.44756 180.748 3.64602 180.848L4.14215 181.147C4.53906 181.347 4.83684 181.646 5.23375 181.846C6.62293 182.843 7.91286 184.04 8.80591 185.636C9.69895 187.233 9.89738 189.327 9.40125 191.023C8.40897 194.515 6.02757 196.809 5.23375 199.602C4.83684 200.999 4.63836 202.495 4.83682 204.091C5.03527 205.588 5.33293 207.084 5.92829 208.481C7.11902 211.374 9.10356 213.868 11.3858 215.863C16.1487 220.052 22.5985 221.449 28.7506 221.748C35.0019 222.048 41.3524 221.349 47.703 221.25C53.9543 221.05 60.404 220.95 66.06 218.756C68.8384 217.658 71.4183 216.062 73.502 213.868C75.5858 211.673 77.5703 209.079 80.051 206.885C84.9132 202.495 90.7676 199.403 96.7213 197.108C99.6981 195.911 102.774 195.113 105.85 194.216C108.728 193.318 111.308 191.323 112.598 188.529C113.292 187.133 113.59 185.637 113.689 184.04C113.689 182.444 113.491 180.948 112.895 179.452C111.804 176.559 109.224 174.264 106.346 173.167" fill="#91B3C7"/>
</svg>
