<svg width="523" height="70" viewBox="0 0 523 70" fill="none" xmlns="http://www.w3.org/2000/svg">
<path d="M58.1416 54.9366C57.2058 56.1071 55.7709 57.524 54.3984 59.2489C49.7817 64.3622 43.7926 69.5986 37.1795 69.9682C32.4381 70.2147 29.1316 67.504 28.071 64.0541C27.5719 63.1301 27.0104 62.206 25.7003 62.0828C25.014 62.0828 24.1406 62.4524 23.4543 62.7604C21.4579 64.0541 19.7111 65.1014 18.0266 66.1487C12.8485 69.1674 4.23907 73.0485 0.807772 65.5943C-2.37398 58.5097 4.551 49.8849 9.29243 45.2029C14.4706 40.2129 22.9552 34.6068 30.6289 35.0997C34.4969 35.2229 36.8676 37.1942 37.8034 39.9665C38.1777 40.5209 38.6144 41.137 39.4255 41.0138C40.1117 41.0138 40.7356 40.7674 41.1723 40.4593C43.2935 38.7344 44.7284 36.8246 46.0385 35.3461C47.5982 33.9292 49.7194 35.0997 50.5304 36.5166C50.9047 37.0094 51.0295 37.4407 51.0295 37.9335C52.0901 40.7057 49.1579 43.6628 46.7872 45.8806C43.855 48.6528 40.2989 52.0411 38.1777 55.6758C36.1813 59.0641 36.8676 63.1301 41.609 62.5756C43.1687 62.0828 44.4164 61.6515 45.3523 60.9739C47.2239 59.9266 48.7836 58.5097 50.4056 57.2776C51.9653 55.6758 53.5874 54.0125 55.0223 52.1643C56.7691 50.0698 59.8885 53.0884 58.0793 55.183L58.1416 54.9366ZM31.128 43.2932C28.5077 40.6441 25.5755 41.3218 22.269 42.4923C17.2156 44.3405 11.5384 48.2216 8.91811 53.0884C7.17127 56.5999 8.23185 61.0355 13.2852 60.7891C15.4064 60.7891 18.3386 59.3722 20.2726 58.3249C22.5185 57.1544 24.2654 55.5526 25.9498 53.6428C26.8856 52.842 33.4987 45.3877 31.128 43.2932Z" fill="#FBF7EE"/>
<path d="M112.033 55.0565C111.098 56.3502 109.663 57.7055 108.29 59.3689C104.734 63.1884 100.616 67.0695 95.9374 68.9177C95.9374 68.9177 95.4384 69.2873 95.4384 69.1641C93.1924 70.0882 91.0712 70.0882 89.5116 69.5337C89.3868 69.4105 89.262 69.4106 89.262 69.4106C85.7059 67.8704 85.2692 63.8045 86.4546 60.4162C86.9537 58.6912 87.8895 56.9047 89.0748 55.0565C90.0107 53.4548 91.0712 51.7915 91.8823 50.4977C92.2566 49.6969 92.9429 48.896 93.1924 47.8487C93.7539 45.1997 90.5722 44.3372 88.0143 45.6309C85.5188 46.8014 83.5224 49.1424 81.9003 50.9906C78.8433 54.6253 71.856 63.9277 71.4193 64.8518C69.9844 67.1928 67.988 69.4105 65.1805 69.8418C63.0594 70.3346 61.4373 69.1641 61.1878 66.1455C61.1878 63.9277 66.7402 58.1984 68.9862 55.0565C70.5458 53.0851 74.9753 47.0478 70.4211 45.6309C67.6136 44.83 64.4319 47.9719 62.3107 50.4361C60.4391 52.7771 58.6299 54.7485 57.1326 56.4735C55.1362 58.4448 52.2664 55.5494 54.0756 53.4548C55.6353 51.3602 60.1896 45.7541 62.685 43.4131C65.3677 41.0721 68.6742 38.4231 71.544 37.6839C74.2267 37.0062 76.5974 37.6838 78.1571 40.9489C78.4066 41.1953 78.4066 41.5034 78.5314 41.7498C79.2177 42.7971 79.592 43.8444 81.2141 43.8444C83.3352 43.7212 85.8307 41.2569 88.2014 39.2856C91.6327 36.3901 95.9998 34.4804 99.4935 34.85C103.05 35.3428 104.672 38.916 104.11 42.181C103.736 43.598 102.8 45.0765 101.615 46.6166C99.9926 49.204 97.9338 51.4218 96.4366 53.9476C95.0016 56.0422 92.8805 60.7242 96.3118 61.4019C97.1228 61.6483 98.0586 61.4019 98.932 61.0322C99.8055 60.6626 100.367 60.3546 100.928 59.9849C102.114 59.0608 103.424 58.0136 104.485 57.0895C106.107 55.4878 107.791 53.8244 109.226 51.9762C110.973 49.8817 113.967 52.9003 112.283 54.9949L112.033 55.0565Z" fill="#FBF7EE"/>
<path d="M157.192 28.3705C153.075 29.9106 147.647 28.8633 143.031 28.2473C142.469 28.2473 141.97 28.3705 141.409 28.7402C140.722 29.1098 139.849 29.6642 139.163 30.4651C132.674 39.8907 124.065 53.5054 123.254 55.4768C122.692 57.2018 122.068 59.5428 122.755 60.8365C124.502 63.8551 128.682 62.3766 131.614 61.0829C131.738 60.9597 131.988 60.8365 132.113 60.7133C133.735 59.666 135.419 58.3723 136.854 57.0169C138.476 55.4768 140.036 53.7519 141.346 52.0269C143.093 49.8091 146.088 52.8278 144.278 55.0456C143.467 56.0929 142.157 57.5098 140.597 59.2348C136.23 64.348 130.428 69.9541 124.065 69.9541C117.701 69.9541 114.145 62.4998 115.455 57.8178C117.015 53.1358 122.443 44.5111 125.936 39.8907C126.311 39.3362 125.562 39.0898 125.125 39.6443C120.883 44.5111 115.331 51.0412 111.213 55.9697C109.591 58.1874 106.472 55.1688 108.156 52.951C111.712 48.6386 120.634 39.4595 128.432 30.4651C128.931 29.6642 129.368 28.7401 128.993 27.8777C128.869 27.508 128.307 27.3232 127.683 27.2C126.373 27.0768 125.188 27.0768 124.127 26.9536C122.568 26.9536 121.195 26.9536 119.76 27.0768C118.949 27.0768 118.45 26.7072 118.138 26.2759C116.578 25.2287 116.953 22.3332 119.199 22.4564C121.195 22.5796 122.942 22.7028 124.876 22.826C126.623 22.826 128.557 22.9493 130.179 23.1957C131.614 23.1957 132.861 22.826 134.047 22.518C135.669 21.9635 136.667 20.4234 137.79 19.3761V19.2529C141.221 15.187 143.779 11.7987 144.84 9.95054C147.46 5.76139 150.018 1.20259 153.699 0.27851C156.631 -0.645569 158.565 0.771329 158.44 3.9132C158.315 6.50062 156.07 8.78004 154.572 10.8746C151.765 14.5093 148.645 17.9592 145.838 21.5939C145.152 22.3948 144.777 23.1957 145.277 23.5653C145.963 23.9349 147.148 23.6885 147.772 23.6885H148.022C151.89 23.1341 156.257 21.7171 158.503 25.4135C159.189 26.584 158.503 28.0009 157.192 28.4321V28.3705Z" fill="#FBF7EE"/>
<path d="M174.672 55.0599C173.611 56.3537 165.501 67.1962 160.635 68.9211C160.635 68.9211 160.136 69.2908 160.136 69.1676C158.014 70.2149 149.904 71.5086 148.469 64.0543C147.908 61.1589 149.031 58.4482 150.216 55.9224C151.027 54.5055 153.772 50.0083 154.833 48.4682C156.268 46.3736 157.89 44.0326 156.018 43.4782C154.708 43.1085 151.526 47.1129 148.469 50.4396C146.473 52.5341 144.788 54.7519 143.041 56.4769C141.295 58.4483 138.3 55.5528 139.984 53.4582C141.295 51.9181 144.227 48.5914 146.473 46.1272C148.032 44.5254 149.904 42.6157 150.59 41.938C157.89 34.8534 159.075 34.9766 162.257 35.0382C164.752 35.1614 166.249 39.2274 165.813 42.3693C165.314 45.2647 161.071 51.5484 159.449 54.1359C158.264 56.2304 154.583 62.7606 158.763 63.1918C162.881 63.5615 170.055 53.8895 171.615 52.0413C173.237 49.9467 176.356 52.9654 174.672 55.0599ZM162.881 22.902C162.881 22.3476 162.881 21.7315 163.005 21.1771C163.13 20.3762 163.567 19.4521 164.44 18.8361C165.127 18.0352 165.875 17.7888 166.686 17.5424C167.497 17.2959 168.558 17.1727 169.494 17.5424C171.24 18.0352 172.675 19.637 173.05 21.3619C173.549 23.5797 172.8 26.0439 170.679 27.0912C168.807 28.0153 166.437 27.7688 164.752 26.4135C164.752 26.2903 164.627 26.2903 164.627 26.2903C164.066 25.9207 163.692 25.6126 163.442 24.9966C163.068 24.3189 162.943 23.5797 162.881 22.902Z" fill="#FBF7EE"/>
<path d="M209.619 55.0436C208.808 56.2141 207.249 57.6311 205.876 59.356C202.445 63.1755 198.078 67.1799 193.523 69.028L193.024 69.2745C187.721 71.2458 183.354 69.0281 183.916 63.114C184.041 61.5738 184.415 60.0953 184.976 58.4319C186.286 54.9204 186.723 52.3946 185.351 49.1296C184.976 48.6367 184.789 48.3287 184.664 47.8359C184.165 47.2814 183.729 46.5421 183.105 46.5421C181.919 46.4189 181.358 47.343 180.734 47.959C178.239 51.2241 175.805 54.1196 173.559 56.4606C171.563 58.432 168.506 55.2901 170.502 53.4419C173.31 50.4233 175.805 47.2814 177.927 43.8931C178.176 43.6467 178.301 43.4003 178.488 43.2155C178.987 42.5378 179.174 41.9218 179.549 41.3673C179.673 41.2441 179.798 40.9976 179.798 40.8744C180.297 39.3343 180.048 37.979 179.673 36.5621C178.738 33.913 178.114 31.2024 178.738 28.4302C179.923 21.7768 189.343 17.2796 189.843 26.7052C189.967 29.4775 189.343 32.4345 188.096 35.4532C187.721 36.8701 187.721 38.2254 187.971 39.7655C187.971 39.8888 188.096 40.1352 188.096 40.2584C189.156 42.4762 190.466 44.694 191.964 47.343C194.334 51.6554 190.342 57.8159 190.529 59.9105C191.028 63.9764 195.395 62.0051 198.452 60.1569C199.637 59.2328 200.698 58.1855 202.008 57.2615C203.63 55.6597 205.19 53.9964 206.625 52.1482C208.372 50.0536 211.366 53.0723 209.682 55.1669L209.619 55.0436Z" fill="#FBF7EE"/>
<path d="M242.911 55.2383C236.984 62.1381 230.995 63.9863 227.938 63.247C227.689 63.247 227.252 63.247 227.127 63.6166C226.191 64.5407 225.38 65.2184 224.32 66.0808C218.331 70.6396 210.283 72.3646 206.539 64.4791C201.673 54.0062 210.283 41.3155 219.142 36.0791C220.077 35.5862 220.701 35.7094 221.138 36.0791C221.512 36.3255 221.824 36.2023 222.074 35.9559C223.384 34.4157 225.006 33.0604 226.815 32.3212H226.94C228.5 31.7667 229.747 31.3971 230.683 31.3971C235.737 31.3971 238.107 35.463 237.733 41.5003C237.234 46.3672 235.612 51.4188 232.867 56.0392C232.492 56.5936 233.116 57.4561 233.803 57.0865C235.924 56.4088 237.92 54.3142 239.48 52.5277C239.48 52.5277 239.605 52.5277 239.605 52.4045C239.729 52.4045 239.729 52.2813 239.729 52.1581C241.476 49.9403 244.596 53.0821 242.911 55.1767V55.2383ZM221.887 60.598C222.261 60.3515 222.261 59.7971 222.011 59.3043C220.576 57.4561 219.516 55.1151 218.954 52.8973C218.268 50.5563 218.143 48.0305 218.393 45.5663C218.393 44.8886 217.582 44.2726 217.083 45.0118C215.336 46.7368 213.776 48.9546 212.84 51.1724C211.281 54.8071 210.594 60.9676 216.272 61.6453C218.268 61.8917 220.14 61.522 221.949 60.598H221.887ZM233.241 38.2353C231.806 34.847 227.938 38.4817 226.753 41.3772C226.067 43.5949 225.817 46.0591 225.942 48.2769C225.942 50.1251 226.067 52.3429 226.878 54.0062C227.002 54.4991 227.564 54.9303 228.312 54.2526C231.245 51.1108 234.801 42.1164 233.241 38.2969V38.2353Z" fill="#FBF7EE"/>
<path d="M316.401 55.059C315.465 56.2295 314.155 57.6465 312.533 59.2482C309.102 63.0677 304.984 67.072 300.243 68.9202L299.744 69.1666C297.498 69.9675 295.501 70.0907 293.817 69.4131H293.692C293.692 69.4131 293.567 69.4131 293.567 69.2898C290.011 67.8729 289.575 63.807 290.76 60.4187C291.259 58.5705 292.195 56.9072 293.38 55.059C294.441 53.4573 297.248 48.7753 297.373 47.8512C297.498 47.2968 297.373 45.5102 295.751 45.2638C290.698 44.2165 286.206 49.8226 283.835 52.9645C281.714 55.4287 279.468 62.8829 279.218 63.807C278.283 67.5033 275.787 70.3371 272.481 69.9675C269.174 69.4746 268.737 66.8256 269.174 64.3614C269.673 61.774 271.295 59.2482 272.73 57.1536C274.29 54.3814 276.161 51.3011 276.598 50.377C276.972 49.6994 277.659 48.7753 277.908 47.7896C278.47 45.0174 275.413 44.1549 272.73 45.5718C270.235 46.6191 268.363 49.0833 266.616 50.9315C263.684 54.443 256.697 63.8686 256.26 64.7927C254.7 67.0105 252.829 69.3514 249.896 69.7827C247.775 70.1523 246.028 69.105 245.904 65.9631C245.904 63.8686 251.456 58.1393 253.702 54.9974C255.137 53.0261 259.816 46.8655 255.137 45.5718C252.454 44.771 249.21 47.9128 247.027 50.377C245.28 52.5948 243.346 54.5662 241.848 56.4143C239.852 58.2625 236.982 55.3671 238.791 53.2725C240.351 51.3011 245.03 45.695 247.401 43.354C250.084 40.8898 253.39 38.364 256.385 37.6247C259.005 36.8239 261.313 37.6247 262.873 40.8898C263.122 41.1362 263.122 41.3827 263.247 41.6907C264.058 42.738 264.433 43.7852 265.93 43.662C268.176 43.662 270.547 41.1978 272.917 39.1033C276.349 36.331 280.092 34.4213 283.773 34.9141C286.393 35.1605 287.765 40.6434 289.45 40.6434C291.134 40.6434 292.632 39.1032 292.881 39.0416C296.063 36.7006 299.369 34.9757 303.237 35.3453C306.794 35.5917 308.416 39.4113 307.729 42.5531C307.48 43.9701 307.168 45.1406 306.107 46.4959C304.36 49.0833 302.426 51.3627 300.804 53.9501C299.494 56.0447 297.248 60.6035 300.68 61.4044C301.491 61.5276 302.426 61.4044 303.362 61.0347C304.048 60.6651 304.672 60.3571 305.234 59.8643C306.544 58.9402 307.729 58.0161 308.79 57.092C310.537 55.4903 311.972 53.7037 313.531 51.8556C315.278 49.761 318.398 52.9028 316.588 54.9974L316.401 55.059Z" fill="#FBF7EE"/>
<path d="M367.962 54.9366C367.026 56.1071 365.591 57.524 364.219 59.2489C359.602 64.3622 353.613 69.5986 347 69.9682C342.258 70.2147 338.952 67.504 337.891 64.0541C337.392 63.1301 336.831 62.206 335.521 62.0828C334.834 62.0828 333.961 62.4524 333.275 62.7604C331.278 64.0541 329.531 65.1014 327.847 66.1487C322.669 69.1674 314.059 73.0485 310.628 65.5943C307.446 58.5097 314.371 49.8849 319.113 45.2029C324.291 40.2129 332.776 34.6068 340.449 35.0997C344.317 35.2229 346.688 37.1942 347.624 39.9665C347.998 40.5209 348.435 41.137 349.246 41.0138C349.932 41.0138 350.556 40.7674 350.993 40.4593C353.114 38.7344 354.549 36.8246 355.859 35.3461C357.419 33.9292 359.54 35.0997 360.351 36.5166C360.725 37.0094 360.85 37.4407 360.85 37.9335C361.91 40.7057 358.978 43.6628 356.607 45.8806C353.675 48.6528 350.119 52.0411 347.998 55.6758C346.002 59.0641 346.688 63.1301 351.429 62.5756C352.989 62.0828 354.237 61.6515 355.173 60.9739C357.044 59.9266 358.604 58.5097 360.226 57.2776C361.786 55.6758 363.408 54.0125 364.843 52.1643C366.589 50.0698 369.709 53.0884 367.9 55.183L367.962 54.9366ZM341.011 43.2932C338.39 40.6441 335.458 41.3218 332.152 42.4923C327.098 44.3405 321.421 48.2216 318.801 53.0884C317.054 56.5999 318.115 61.0355 323.168 60.7891C325.289 60.7891 328.221 59.3722 330.155 58.3249C332.401 57.1544 334.148 55.5526 335.833 53.6428C336.768 52.842 343.381 45.3877 341.011 43.2932Z" fill="#FBF7EE"/>
<path d="M421.854 55.0565C420.918 56.3502 419.483 57.7055 418.111 59.3689C414.555 63.1884 410.437 67.0695 405.758 68.9177C405.758 68.9177 405.259 69.2873 405.259 69.1641C403.013 70.0882 400.892 70.0882 399.332 69.5337C399.207 69.4105 399.083 69.4106 399.083 69.4106C395.527 67.8704 395.09 63.8045 396.275 60.4162C396.774 58.6912 397.71 56.9047 398.895 55.0565C399.831 53.4548 400.892 51.7915 401.703 50.4977C402.077 49.6969 402.763 48.896 403.013 47.8487C403.574 45.1997 400.393 44.3372 397.835 45.6309C395.339 46.8014 393.343 49.1424 391.721 50.9906C388.664 54.6253 381.677 63.9277 381.24 64.8518C379.805 67.1928 377.809 69.4105 375.001 69.8418C372.88 70.3346 371.258 69.1641 371.008 66.1455C371.008 63.9277 376.561 58.1984 378.807 55.0565C380.366 53.0851 384.796 47.0478 380.242 45.6309C377.434 44.83 374.252 47.9719 372.131 50.4361C370.26 52.7771 368.45 54.7485 366.953 56.4735C364.957 58.4448 362.087 55.5494 363.896 53.4548C365.456 51.3602 370.01 45.7541 372.506 43.4131C375.188 41.0721 378.495 38.4231 381.365 37.6839C384.047 37.0062 386.418 37.6838 387.978 40.9489C388.227 41.1953 388.227 41.5034 388.352 41.7498C389.038 42.7971 389.413 43.8444 391.035 43.8444C393.156 43.7212 395.651 41.2569 398.022 39.2856C401.453 36.3901 405.82 34.4804 409.314 34.85C412.87 35.3428 414.492 38.916 413.931 42.181C413.556 43.598 412.621 45.0765 411.435 46.6166C409.813 49.204 407.754 51.4218 406.257 53.9476C404.822 56.0422 402.701 60.7242 406.132 61.4019C406.943 61.6483 407.879 61.4019 408.753 61.0322C409.626 60.6626 410.188 60.3546 410.749 59.9849C411.934 59.0608 413.244 58.0136 414.305 57.0895C415.927 55.4878 417.612 53.8244 419.046 51.9762C420.793 49.8817 423.788 52.9003 422.103 54.9949L421.854 55.0565Z" fill="#FBF7EE"/>
<path d="M467.013 28.3705C462.895 29.9106 457.467 28.8633 452.851 28.2473C452.289 28.2473 451.79 28.3705 451.229 28.7402C450.542 29.1098 449.669 29.6642 448.983 30.4651C442.494 39.8907 433.885 53.5054 433.074 55.4768C432.512 57.2018 431.889 59.5428 432.575 60.8365C434.322 63.8551 438.502 62.3766 441.434 61.0829C441.559 60.9597 441.808 60.8365 441.933 60.7133C443.555 59.666 445.239 58.3723 446.674 57.0169C448.296 55.4768 449.856 53.7519 451.166 52.0269C452.913 49.8091 455.908 52.8278 454.098 55.0456C453.287 56.0929 451.977 57.5098 450.418 59.2348C446.051 64.348 440.248 69.9541 433.885 69.9541C427.521 69.9541 423.965 62.4998 425.276 57.8178C426.835 53.1358 432.263 44.5111 435.757 39.8907C436.131 39.3362 435.382 39.0898 434.946 39.6443C430.703 44.5111 425.151 51.0412 421.033 55.9697C419.411 58.1874 416.292 55.1688 417.976 52.951C421.532 48.6386 430.454 39.4595 438.252 30.4651C438.751 29.6642 439.188 28.7401 438.814 27.8777C438.689 27.508 438.127 27.3232 437.503 27.2C436.193 27.0768 435.008 27.0768 433.947 26.9536C432.388 26.9536 431.015 26.9536 429.58 27.0768C428.769 27.0768 428.27 26.7072 427.958 26.2759C426.399 25.2287 426.773 22.3332 429.019 22.4564C431.015 22.5796 432.762 22.7028 434.696 22.826C436.443 22.826 438.377 22.9493 439.999 23.1957C441.434 23.1957 442.682 22.826 443.867 22.518C445.489 21.9635 446.487 20.4234 447.61 19.3761V19.2529C451.041 15.187 453.599 11.7987 454.66 9.95054C457.28 5.76139 459.838 1.20259 463.519 0.27851C466.451 -0.645569 468.385 0.771329 468.26 3.9132C468.136 6.50062 465.89 8.78004 464.392 10.8746C461.585 14.5093 458.466 17.9592 455.658 21.5939C454.972 22.3948 454.598 23.1957 455.097 23.5653C455.783 23.9349 456.968 23.6885 457.592 23.6885H457.842C461.71 23.1341 466.077 21.7171 468.323 25.4135C469.009 26.584 468.323 28.0009 467.013 28.4321V28.3705Z" fill="#FBF7EE"/>
<path d="M484.464 55.0599C483.403 56.3537 475.293 67.1962 470.427 68.9211C470.427 68.9211 469.928 69.2908 469.928 69.1676C467.806 70.2149 459.696 71.5086 458.261 64.0543C457.7 61.1589 458.823 58.4482 460.008 55.9224C460.819 54.5055 463.564 50.0083 464.625 48.4682C466.059 46.3736 467.682 44.0326 465.81 43.4782C464.5 43.1085 461.318 47.1129 458.261 50.4396C456.265 52.5341 454.58 54.7519 452.833 56.4769C451.087 58.4483 448.092 55.5528 449.776 53.4582C451.087 51.9181 454.019 48.5914 456.265 46.1272C457.824 44.5254 459.696 42.6157 460.382 41.938C467.682 34.8534 468.867 34.9766 472.049 35.0382C474.544 35.1614 476.041 39.2274 475.605 42.3693C475.106 45.2647 470.863 51.5484 469.241 54.1359C468.056 56.2304 464.375 62.7606 468.555 63.1918C472.673 63.5615 479.847 53.8895 481.407 52.0413C483.029 49.9467 486.148 52.9654 484.464 55.0599ZM472.673 22.902C472.673 22.3476 472.673 21.7315 472.797 21.1771C472.922 20.3762 473.359 19.4521 474.232 18.8361C474.919 18.0352 475.667 17.7888 476.478 17.5424C477.289 17.2959 478.35 17.1727 479.286 17.5424C481.032 18.0352 482.467 19.637 482.842 21.3619C483.341 23.5797 482.592 26.0439 480.471 27.0912C478.599 28.0153 476.229 27.7688 474.544 26.4135C474.544 26.2903 474.419 26.2903 474.419 26.2903C473.858 25.9207 473.484 25.6126 473.234 24.9966C472.86 24.3189 472.735 23.5797 472.673 22.902Z" fill="#FBF7EE"/>
<path d="M522.366 54.683C521.43 55.8535 519.87 57.2704 518.373 58.9954C517.687 59.673 515.066 62.2605 512.134 64.4782C508.391 67.2505 503.774 69.8379 496.225 69.9611C490.798 70.0843 485.744 69.4066 482.874 66.2648C477.197 59.7346 479.443 52.2804 484.309 46.6743C488.302 41.5611 493.418 37.8031 500.592 35.5854C502.589 35.0925 506.519 34.6613 508.952 35.0925C512.009 35.647 513.881 36.9407 514.879 39.2817C515.815 41.6227 515.441 44.3949 514.318 46.2431C512.321 49.3849 509.451 51.3563 505.708 52.1572C503.337 52.7116 502.152 49.5698 503.712 48.4609C503.837 48.2144 504.086 48.0912 504.211 47.968C509.389 44.4565 506.831 41.6843 504.71 41.1914C500.717 40.2673 493.293 45.627 490.548 49.1385C489.363 50.4322 486.555 54.2517 488.677 58.5641C492.669 65.7719 506.02 63.3693 512.633 58.0713C513.195 57.5784 513.819 57.1472 514.38 56.6544C516.127 55.0526 517.687 53.3893 519.246 51.5411C520.993 49.4466 524.175 52.4652 522.553 54.5598L522.366 54.683Z" fill="#FBF7EE"/>
</svg>
