<svg width="181" height="162" viewBox="0 0 181 162" fill="none" xmlns="http://www.w3.org/2000/svg">
<path d="M41.142 62.513C31.1817 57.0198 21.2214 51.6265 11.2611 46.1334C16.4404 42.7376 23.8111 50.3282 29.09 47.0323C21.7194 35.8462 7.57582 30.4529 0.504006 19.0671C0.105594 18.368 -0.292891 17.3692 0.304727 16.8698C0.603536 16.6701 1.00205 16.5702 1.40046 16.5702C6.87862 16.2706 12.0579 19.167 16.6396 22.2631C25.2055 28.1558 32.9746 35.1471 39.7476 43.1371C43.9309 48.031 55.8833 60.8151 53.7916 67.7065C49.5087 67.5067 45.0266 64.5105 41.2417 62.513H41.142Z" fill="#91B3C7"/>
<path d="M119.131 0.789891C123.115 -0.30874 126.701 -0.308722 131.083 1.08954C135.665 2.48779 140.048 4.98467 143.534 8.38044C146.124 10.7775 148.315 13.7737 148.713 17.2694C149.112 20.4654 148.713 23.162 150.506 26.0584C152.299 28.9548 155.387 30.1533 156.383 33.1496C156.383 33.4492 156.582 33.7488 156.383 34.0485C156.084 34.448 155.486 34.3481 154.988 34.2482C153.594 33.9486 152.299 34.448 151.004 34.9473C147.518 36.2457 143.335 36.5454 141.641 40.041C138.454 46.3332 137.259 52.5254 135.964 59.317C135.267 62.9125 135.466 66.6079 134.47 70.1036C133.474 73.8988 132.279 77.4943 130.287 80.7902C124.609 90.0786 115.247 95.3721 104.689 96.8702C103.493 97.0699 102.199 97.0699 101.003 97.1698C98.0153 97.3696 94.9275 97.4695 91.9394 97.0699C90.3458 96.8702 88.7522 96.4707 87.1586 96.3708C85.3657 96.3708 83.4732 96.6704 81.78 96.171C80.1863 95.7715 79.1903 94.573 78.1943 93.2747C79.3895 93.2747 80.4852 93.6742 81.6804 93.9738C83.0749 94.3733 84.4692 94.4732 85.8637 94.5731C90.3458 94.9726 94.7284 95.372 99.3101 95.2722C100.705 95.2722 102.099 95.1723 103.493 94.8727C105.984 94.3733 108.274 93.3745 110.565 92.3758C113.155 91.2772 115.745 90.0787 117.637 88.0812C119.629 86.0836 120.227 83.4869 121.721 81.2896C123.314 78.9925 125.008 76.8951 126.502 74.4981C128.195 71.7016 130.386 68.7053 131.382 65.709C133.773 58.518 135.765 51.2271 136.96 43.8363C137.358 41.2395 137.956 38.443 135.068 37.3443C133.574 36.7451 131.781 37.7439 130.287 36.9449C129.091 36.3456 128.793 34.8475 127.697 34.0485C125.904 32.4505 122.617 31.3518 120.227 31.4517C117.836 31.4517 115.446 32.7501 114.45 34.9473C114.151 35.5466 114.051 36.1459 113.553 36.6452C112.856 37.2445 111.76 37.3444 111.163 38.0435C110.466 38.8425 110.864 40.1409 111.163 41.1396C113.255 47.1322 114.051 54.0236 112.358 60.2158C109.569 70.4032 102.796 74.7977 92.7363 75.9962C87.9554 76.5955 83.0749 76.7952 78.6923 78.6928C78.3935 77.7939 79.29 77.0948 80.0868 76.5955C84.7681 73.6991 89.7482 70.7028 95.2264 70.4032C96.7204 70.4032 98.2145 70.4032 99.609 69.8039C100.605 69.3045 101.501 68.4057 102.199 67.5068C104.788 64.0111 106.282 59.317 106.183 55.0223C106.183 50.8276 104.987 47.0323 106.382 43.1371C107.577 39.8413 109.071 36.845 111.462 34.3481C116.043 29.4542 122.717 26.8574 129.39 27.6564C132.08 27.9561 134.57 29.1546 137.159 29.5541C145.028 30.8524 145.626 23.2619 144.829 17.2694C144.43 13.9735 143.036 10.7775 140.446 8.68008C138.753 7.3817 136.661 6.68256 134.669 5.98343C124.51 2.58766 114.051 2.78743 105.685 10.1782C103.991 11.6763 102.398 13.4741 100.904 15.172C99.7085 16.4704 92.9356 25.8587 91.5411 25.4592C90.1467 25.0597 96.0232 15.172 96.82 13.9735C97.5172 12.6751 98.3141 11.4766 99.3101 10.3779C100.406 9.27932 101.8 8.58018 103.195 7.78118C107.378 5.58392 111.76 3.48655 116.243 1.68879C117.239 1.28929 118.235 0.989666 119.231 0.690039L119.131 0.789891Z" fill="#91B3C7"/>
<path d="M91.3419 96.2709C90.9435 98.568 89.549 98.8677 90.7443 100.965C91.7403 102.863 92.2384 104.96 91.5412 107.157C90.5451 110.253 87.3578 111.252 87.7562 112.351C88.055 113.35 90.6447 112.85 96.5213 112.451C101.302 112.151 103.693 111.951 106.482 112.051C111.561 112.151 113.952 112.85 114.251 111.851C114.549 110.953 112.757 109.554 110.167 107.057C106.88 103.961 104.29 101.265 101.9 97.3695C101.8 97.1698 101.601 96.97 101.402 96.8702C101.203 96.8702 101.003 96.8702 100.904 96.8702C100.007 97.1698 99.0114 96.3708 98.0153 96.2709C98.4138 99.7665 105.984 104.66 104.191 108.556C103.195 110.753 97.318 110.553 95.4256 107.457C94.5291 105.959 94.5292 103.462 94.1308 101.764C93.9316 100.865 93.832 99.9663 93.5332 99.1673C93.334 98.3683 93.1348 97.3695 93.5332 96.5705C93.1348 96.4707 92.7363 96.5705 92.3379 96.5705C91.9395 96.5705 91.6407 96.3708 91.3419 96.0712V96.2709Z" fill="#91B3C7"/>
<path d="M165.646 10.5777C165.148 12.5752 164.351 14.4728 163.554 16.2706C162.757 18.0683 161.861 19.8661 160.765 21.564C159.67 23.2619 158.375 24.8599 157.379 26.5578C156.383 28.2556 155.586 30.1533 154.889 32.0509C154.192 33.9485 153.594 35.8462 152.897 37.6439C152.199 39.5416 151.602 41.3393 151.004 43.2369C150.307 45.0347 149.709 46.9324 149.211 48.83C148.614 50.7276 148.116 52.6253 147.618 54.6228H147.319C146.721 50.5279 147.319 46.3331 148.415 42.438C149.012 40.4404 149.809 38.6427 150.705 36.745C151.602 34.9473 152.598 33.1495 153.693 31.4516C154.789 29.7538 155.785 28.0559 156.682 26.2581C157.578 24.4603 158.076 22.4629 158.873 20.6651C159.67 18.8673 160.666 17.0696 161.761 15.3717C162.857 13.6738 163.953 11.9759 165.347 10.4778H165.546L165.646 10.5777Z" fill="#91B3C7"/>
<path d="M164.849 20.4654C168.136 19.7663 171.522 19.8661 174.809 20.4654C175.307 20.4654 175.905 20.765 175.905 21.2644C175.905 21.564 175.706 21.7638 175.606 21.9635C174.51 23.162 172.817 23.7613 171.224 24.1608C169.132 24.7601 160.466 28.0559 158.873 26.0584C156.482 23.162 163.454 20.8649 164.948 20.5653L164.849 20.4654Z" fill="#91B3C7"/>
<path d="M65.943 87.0824C65.943 87.0824 66.1423 87.2821 66.2419 87.382C66.4411 87.6816 66.6403 87.9813 66.8395 88.181C67.1383 88.5805 67.6363 88.7803 67.9351 89.1798C68.2339 89.3795 68.4332 89.6791 68.6324 89.8789C68.9312 90.0786 69.23 90.2784 69.6284 90.3783C70.0268 90.578 71.6204 91.4769 71.9192 90.9775C72.218 90.4782 70.6244 89.4794 70.4252 89.1798C69.2299 87.8814 68.0347 86.4831 66.9391 85.0849C64.7478 82.3882 62.7558 79.4919 60.7637 76.5955C59.7677 75.0973 58.6721 73.5992 58.3732 71.8014C58.174 70.9025 58.2736 69.9038 58.0744 69.0049C57.3772 66.0086 56.182 67.7065 56.4808 69.9038C56.7796 72.1011 57.5764 74.2983 58.3732 76.2958C59.2697 78.3932 60.4649 80.4906 61.8593 82.2884C63.2538 84.0861 63.2537 84.0861 64.0506 84.985C64.6482 85.6841 65.5447 86.2834 66.1423 86.9825L65.943 87.0824Z" fill="#91B3C7"/>
<path d="M100.207 112.551C94.0312 114.348 87.7561 115.747 81.9791 117.944C79.0907 119.043 76.4014 120.241 73.9113 121.839C71.4213 123.437 69.2301 125.235 67.6364 127.432C66.8396 128.531 66.1423 129.629 65.7439 130.728C65.6443 131.028 65.5447 131.327 65.4451 131.627C65.4451 131.927 65.2459 132.326 65.2459 132.426C65.2459 132.526 65.2459 132.426 65.1463 132.026C65.0467 131.727 64.8475 131.627 64.8475 131.627C64.8475 131.627 65.3455 131.927 65.8435 132.126C66.1423 132.126 66.4412 132.326 66.74 132.326H67.238L67.8356 132.526L72.5169 133.225C78.7919 134.124 85.1665 134.823 91.5411 134.523C94.7284 134.423 97.9157 134.124 101.003 133.624C104.191 133.125 107.278 132.526 110.366 131.727C116.541 130.129 122.418 128.131 128.295 125.834C134.171 123.637 139.749 120.94 145.028 117.844C147.717 116.246 150.207 114.548 152.697 112.85C153.295 112.451 153.992 111.951 154.59 111.552L156.383 110.154C156.881 109.754 157.279 109.455 157.279 109.255C157.279 109.255 157.279 109.255 157.279 109.654C157.279 109.954 157.279 110.653 157.578 110.953L159.869 112.651C156.383 111.752 152.897 110.953 149.311 110.254C145.725 109.554 142.139 109.055 138.554 108.656C134.968 108.256 131.283 107.956 127.597 107.857C123.912 107.657 120.227 107.657 116.442 107.757V107.058C119.928 105.959 123.613 105.16 127.398 104.561C131.183 103.961 134.968 103.662 138.753 103.562C142.538 103.562 146.422 103.562 150.207 103.961C153.992 104.261 157.877 104.86 161.562 105.759L163.056 106.059L163.853 107.457C163.952 107.757 164.152 107.956 164.251 108.256C164.351 108.556 164.45 108.855 164.55 109.155C164.65 109.754 164.65 110.453 164.55 111.053C164.351 112.151 163.952 112.95 163.554 113.549C162.757 114.748 161.96 115.447 161.164 116.146C159.869 117.145 158.474 118.244 157.179 119.142C154.49 121.04 151.602 122.738 148.614 124.336C145.725 125.834 142.637 127.232 139.55 128.431C136.462 129.629 133.374 130.728 130.287 131.627C124.012 133.425 117.537 134.523 111.063 135.222C104.589 135.922 98.2145 136.321 91.7403 136.82C85.3657 137.22 78.8915 137.819 72.4173 138.019H70.0268H67.6364H67.0387H66.3415C65.8435 138.019 65.4451 138.019 64.9471 137.919C63.951 137.719 62.8554 137.52 61.5605 136.621C60.8633 136.121 60.1662 135.422 59.7678 134.423C59.3693 133.425 59.3693 132.326 59.4689 131.727C59.4689 131.028 59.6682 130.628 59.7678 130.129C59.8674 129.629 60.0666 129.13 60.1662 128.731C60.8634 126.933 61.8593 125.235 63.0546 123.737C65.3454 120.84 68.3336 118.643 71.3217 117.045C74.4094 115.347 77.6962 114.249 80.8835 113.549C87.4573 112.051 93.9315 111.852 100.406 112.051V112.75L100.207 112.551Z" fill="#91B3C7"/>
<path d="M82.8756 122.838C79.0907 122.239 75.4054 121.34 71.7201 120.94C68.1344 120.541 64.5487 120.441 61.2618 121.14C57.9749 121.839 54.8872 123.237 52.7956 125.335C52.4967 125.634 52.2975 125.934 51.9987 126.134C51.7995 126.433 51.6999 126.533 51.7995 126.433C51.7995 126.234 51.7995 125.934 51.7995 125.734C51.7995 125.534 51.7995 125.634 51.7995 125.734C51.7995 125.834 52.0983 126.034 52.3971 126.234L52.7956 126.533L53.3931 126.933L55.6841 128.431C61.7598 132.226 68.6324 135.622 75.9034 137.42C79.5887 138.319 83.2741 138.818 87.059 139.217C90.8439 139.617 94.6287 139.617 98.4137 139.717H109.768C113.454 139.717 117.039 139.717 120.625 139.118C127.697 138.119 134.669 135.722 141.641 133.325C145.127 132.126 148.414 130.828 151.303 129.13C152.797 128.231 154.092 127.332 155.287 126.234C156.383 125.235 157.678 123.637 157.877 123.038C157.877 122.938 157.877 122.838 157.976 122.838C157.976 122.838 157.976 122.738 157.976 122.438C157.777 122.039 157.08 121.24 156.482 120.641C155.287 119.342 153.992 118.144 152.498 117.045C149.61 114.848 146.422 113.05 142.837 111.652V110.953C146.821 111.152 150.705 112.251 154.291 113.949C156.084 114.848 157.777 115.847 159.47 117.145C160.267 117.844 161.064 118.244 161.96 119.342C162.458 119.842 162.857 120.541 163.156 121.539C163.454 122.438 163.455 123.337 163.255 124.136C162.956 125.734 162.259 126.833 161.662 127.832C161.064 128.73 160.466 129.629 159.669 130.528C158.275 132.226 156.582 133.624 154.889 134.823C151.403 137.22 147.717 138.918 144.032 140.316C140.446 141.614 136.661 142.913 132.876 143.812C129.091 144.711 125.107 145.41 121.123 145.709C117.139 146.009 113.155 145.909 109.27 145.41C107.378 145.21 105.486 144.91 103.593 144.611L97.9156 143.612L75.3058 139.717C71.5209 139.018 67.736 138.319 63.951 137.42C60.1661 136.521 56.3813 135.322 52.7956 133.624C51.8991 133.225 51.0026 132.725 50.1062 132.226L49.409 131.827C49.1102 131.627 48.911 131.527 48.6122 131.327C48.1141 130.928 47.6161 130.528 47.0185 129.929C46.5205 129.33 45.9229 128.631 45.6241 127.532C45.3253 126.433 45.3253 125.135 45.8233 124.036C46.2218 123.038 46.8194 122.438 47.2178 121.939C47.6162 121.539 48.0146 121.14 48.413 120.74C51.7995 117.644 56.182 116.146 60.3654 115.747C62.457 115.547 64.5487 115.647 66.6404 115.847C68.6325 116.146 70.6244 116.646 72.5169 117.245C76.3018 118.543 79.6884 120.241 83.0749 122.139L82.8756 122.838Z" fill="#91B3C7"/>
<path d="M84.7681 125.535C81.282 128.231 78.5927 131.028 76.501 134.224C75.505 135.822 74.6086 137.42 73.9114 139.118C73.6125 140.017 73.2141 140.816 72.9153 141.714C72.8157 142.114 72.6165 142.613 72.5169 143.013C72.5169 143.013 72.5169 143.013 72.3177 142.414C72.3177 142.114 72.0189 141.714 71.7201 141.515C71.4213 141.315 71.3217 141.215 71.2221 141.215C71.1225 141.215 71.521 141.415 71.6206 141.415L72.3177 141.714C72.7161 141.914 73.2142 142.114 73.7122 142.314C74.6086 142.713 75.6047 143.113 76.6007 143.412C78.5928 144.012 80.5848 144.411 82.6765 144.311C84.7681 144.311 86.8597 144.012 88.8518 143.512C90.8439 143.013 92.7364 142.114 94.6288 141.315C96.5213 140.416 98.3141 139.517 100.207 138.618C102.099 137.719 103.892 136.821 105.685 135.822C107.478 134.823 109.27 133.824 111.163 132.825C111.661 132.626 112.059 132.326 112.557 132.126C113.055 131.927 113.653 131.627 114.151 131.327C115.247 130.828 116.342 130.428 117.338 130.129C121.621 128.731 125.805 127.932 129.888 127.133C134.072 126.334 138.056 125.634 142.139 124.336L142.538 124.935C141.044 126.633 139.151 127.932 137.259 129.03C135.366 130.129 133.374 131.227 131.482 132.026C127.597 133.824 123.514 135.322 119.928 136.92C119.032 137.32 118.135 137.719 117.239 138.119L114.549 139.517C112.657 140.516 110.565 141.315 108.573 142.114C106.482 142.913 104.489 143.612 102.398 144.311C100.306 144.91 98.1149 145.31 95.9236 145.61C93.7323 145.909 91.5411 146.009 89.3498 146.109L82.8756 146.409C80.6844 146.409 78.4931 146.608 76.3018 146.708C75.2062 146.708 74.011 146.708 72.9153 146.708C72.3177 146.708 71.8197 146.708 71.2221 146.608H70.3257C70.0269 146.409 69.8277 146.508 69.2301 146.209C68.9312 146.109 68.5328 145.909 68.0347 145.51C67.5367 145.11 67.1383 144.511 67.0387 144.012C66.7399 142.913 66.8396 142.214 66.8396 141.814C66.8396 141.115 67.0388 140.616 67.1384 140.017C67.3376 139.417 67.4372 138.818 67.6364 138.319C67.8356 137.719 68.0348 137.22 68.3336 136.621C69.3296 134.423 70.7241 132.426 72.4173 130.728C75.7042 127.332 80.0868 125.035 84.6685 124.935L84.8677 125.634L84.7681 125.535Z" fill="#91B3C7"/>
<path d="M82.1785 131.227C87.7562 131.827 92.9356 132.226 98.2145 132.226H100.207H102.199C103.493 132.226 104.788 132.126 106.083 132.026C107.378 132.026 108.673 131.827 109.968 131.727C111.263 131.727 112.557 131.527 113.852 131.527C119.032 131.227 124.51 130.928 129.689 129.33C134.769 127.732 139.649 125.035 143.733 121.739C145.825 120.041 147.717 118.244 149.51 116.446C151.303 114.548 152.897 112.651 154.191 110.653C155.586 108.556 156.582 106.358 157.379 104.161C157.777 103.062 158.076 101.964 158.275 100.765V100.166C158.375 100.166 158.275 100.466 158.673 101.165C158.873 101.564 159.172 101.964 159.57 102.164C159.869 102.363 160.168 102.463 160.267 102.463C160.466 102.463 159.968 102.463 159.67 102.363C154.391 101.265 149.411 100.266 144.331 100.166C139.351 100.166 134.271 100.965 129.689 103.961L129.191 103.462C130.685 101.065 132.976 99.0675 135.566 97.6692C138.155 96.1711 140.944 95.2722 143.932 94.7728C149.809 93.7741 155.586 94.3733 160.964 95.1723C161.363 95.1723 161.462 95.1723 162.359 95.472C162.757 95.5718 163.355 95.7716 163.953 96.271C164.55 96.6705 165.148 97.3696 165.447 98.0687C166.044 99.467 166.044 100.466 165.945 101.065C165.945 101.365 165.945 101.664 165.845 101.864V102.463C165.347 103.961 164.949 105.46 164.351 106.958C163.156 109.854 161.562 112.451 159.67 114.748C157.777 117.045 155.686 119.142 153.295 120.84C151.004 122.538 148.414 123.936 145.924 125.135C143.335 126.333 140.845 127.432 138.255 128.431C136.96 128.93 135.765 129.53 134.47 130.029C133.872 130.329 133.175 130.528 132.578 130.828C131.98 131.028 131.283 131.327 130.685 131.627C125.605 133.724 120.526 136.221 114.948 137.52C113.553 137.819 112.159 138.119 110.764 138.219C109.37 138.319 107.976 138.518 106.482 138.418C105.087 138.418 103.693 138.418 102.199 138.319C100.804 138.219 99.4098 138.119 98.0154 137.819C92.4376 136.92 86.9594 135.123 82.1785 132.026L82.3776 131.327L82.1785 131.227Z" fill="#91B3C7"/>
<path d="M65.4452 129.13C63.1543 131.327 61.1623 133.724 59.6683 136.421C58.9711 137.719 58.2738 139.018 57.7758 140.416C57.477 141.115 57.2777 141.814 57.0785 142.513C56.9789 142.913 56.8793 143.212 56.9789 143.112C56.9789 143.112 56.9789 142.913 56.9789 142.713C56.9789 142.513 56.8794 142.313 56.7798 142.313C56.7798 142.114 56.7797 142.313 56.9789 142.313C57.2777 142.513 57.5766 142.613 57.8754 142.813C58.473 143.112 59.1702 143.412 59.7679 143.612C61.0627 144.111 62.4571 144.511 63.9511 144.91C66.9392 145.609 69.9273 146.308 72.9154 146.908C78.8916 148.206 85.2662 149.405 91.5412 149.105C94.7285 148.905 97.8161 148.406 100.904 147.607C103.992 146.808 106.98 145.709 109.868 144.511C112.856 143.312 115.745 142.014 118.733 140.815C121.721 139.617 124.709 138.518 127.797 137.42C133.972 135.322 140.247 133.724 146.223 132.026C149.211 131.227 152.199 130.328 154.988 129.33C155.686 129.13 156.383 128.83 157.08 128.531L157.478 128.331H157.777C157.976 128.131 158.076 128.031 158.076 128.131C158.076 128.131 157.877 128.431 157.877 128.73C157.877 129.03 157.976 129.43 158.076 129.43C158.076 129.43 158.076 129.33 157.877 129.13C157.678 128.93 157.379 128.631 157.18 128.331C156.084 127.232 154.988 126.134 153.893 125.135C152.797 124.136 151.602 123.137 150.307 122.338C147.817 120.64 145.028 119.342 141.94 118.543V117.844C145.227 117.444 148.713 117.944 152 119.142C153.594 119.742 155.187 120.541 156.582 121.439C158.076 122.338 159.47 123.237 160.765 124.236C161.064 124.536 161.363 124.735 161.861 125.035C162.259 125.434 162.757 125.834 163.156 126.533C163.654 127.232 164.052 128.331 163.853 129.529C163.853 130.728 163.255 131.727 162.658 132.326C162.16 133.025 161.562 133.425 161.064 133.724C160.865 133.924 160.566 134.024 160.367 134.224L159.769 134.623C159.072 135.023 158.275 135.422 157.478 135.822C154.391 137.32 151.303 138.518 148.116 139.417C144.928 140.416 141.841 141.215 138.653 141.914C135.566 142.613 132.478 143.312 129.39 144.011C126.303 144.81 123.315 145.609 120.127 146.408C117.04 147.207 113.852 147.807 110.665 148.406C104.29 149.704 97.8161 150.703 91.4415 151.502C85.0669 152.301 78.4932 153.3 71.8198 152.9C68.5329 152.701 65.1464 152.101 61.9591 151.102C60.3654 150.703 58.6721 150.004 57.0785 149.305C56.2817 148.905 55.485 148.506 54.6881 148.006C54.2897 147.807 53.8912 147.507 53.4928 147.207C53.0944 146.908 52.4968 146.508 51.8992 145.709C51.6004 145.31 51.4012 144.81 51.202 144.211C51.1024 143.612 51.1024 143.112 51.202 142.613C51.4012 141.714 51.6004 141.315 51.7996 140.915C52.198 140.116 52.5964 139.317 52.9948 138.518C53.8912 137.02 54.9868 135.622 56.0825 134.323C58.4729 131.827 61.3615 129.829 64.4491 128.73L64.8476 129.33L65.4452 129.13Z" fill="#91B3C7"/>
<path d="M107.179 146.808C110.864 145.909 114.45 145.609 117.936 145.41C119.729 145.41 121.422 145.31 123.215 145.21C125.008 145.21 126.701 145.21 128.494 145.51C131.98 145.909 135.566 147.008 139.151 147.008C142.737 147.008 146.223 146.309 149.61 145.21C151.303 144.611 152.897 144.011 154.391 143.312C155.885 142.613 157.279 141.914 158.375 141.115C159.57 140.216 160.566 139.217 161.263 138.219C161.96 137.12 162.458 136.121 162.857 134.923C163.554 132.526 163.454 129.43 162.658 126.433C162.259 124.835 161.761 123.237 161.164 121.639C160.566 119.941 159.869 118.244 159.271 116.446L159.869 116.046C161.462 117.145 162.857 118.343 164.152 119.642C165.546 120.94 166.741 122.538 167.737 124.236C168.733 125.934 169.63 127.931 170.028 130.029C170.526 132.126 170.526 134.423 170.028 136.72C169.53 139.018 168.435 141.215 166.841 142.913C165.347 144.611 163.454 145.909 161.662 146.908C159.769 147.907 157.777 148.506 155.785 148.805C153.793 149.105 151.901 149.105 150.008 149.105C146.323 148.905 142.737 148.905 139.151 149.305C135.566 149.704 131.98 151.003 128.394 151.402C126.601 151.602 124.709 151.702 122.916 151.502C121.123 151.402 119.33 151.202 117.538 150.903C113.952 150.304 110.366 149.305 106.98 147.607V146.908L107.179 146.808Z" fill="#91B3C7"/>
<path d="M73.3137 145.51C72.3177 145.51 71.3217 145.41 70.3256 145.51C69.3296 145.51 68.4331 145.709 67.5367 145.809C65.7438 146.209 64.0506 146.808 62.5565 147.707L63.6523 144.311C66.2419 147.807 69.9272 150.304 73.9113 152.201C75.9034 153.1 77.9951 153.999 80.1863 154.798C82.3776 155.597 84.6684 156.396 86.9593 156.995C88.1545 157.295 89.3498 157.595 90.5451 157.794C91.7403 157.994 92.9355 158.294 94.1308 158.394C95.326 158.493 96.5212 158.593 97.816 158.693C99.0113 158.693 100.207 158.693 101.501 158.693C106.382 158.593 111.163 157.694 115.944 156.696C120.725 155.697 125.406 154.998 130.087 153.799C134.769 152.601 139.351 151.302 143.932 150.104C145.127 149.804 146.223 149.505 147.418 149.105C148.614 148.805 149.709 148.506 150.904 148.106C153.195 147.407 155.586 146.808 157.578 146.009C159.669 145.21 161.462 144.211 162.857 142.713C164.152 141.115 165.148 139.018 164.65 136.621L165.247 136.321C166.044 137.32 166.542 138.818 166.542 140.216C166.542 141.614 166.343 143.113 165.745 144.411C164.55 147.108 162.259 149.205 160.068 150.603C157.777 152.101 155.486 153.1 153.195 154.199C150.904 155.198 148.614 156.196 146.223 157.095C141.442 158.793 136.562 159.992 131.581 160.791C126.601 161.49 121.621 162.089 116.541 161.989C111.561 161.989 106.482 161.39 101.601 161.09C96.6208 160.791 91.7403 160.591 86.7601 160.591C84.27 160.591 81.6804 160.591 79.0907 160.091C76.5011 159.692 73.9113 158.993 71.5208 157.894C69.1303 156.696 66.8395 155.198 64.7479 153.4C62.7558 151.502 61.0625 149.305 59.8673 146.808L58.6721 144.211L61.0625 143.412C63.2538 142.713 65.6443 142.513 67.8355 142.813C68.9312 142.913 70.0268 143.212 71.0228 143.612C72.0188 144.011 73.0149 144.411 73.9113 145.01L73.7121 145.709L73.3137 145.51Z" fill="#91B3C7"/>
<path d="M178.893 92.176C176.303 94.7728 174.411 97.8689 173.016 101.265C172.319 102.963 171.622 104.66 171.224 106.458C170.825 108.256 170.526 110.054 170.427 111.852C170.227 115.547 170.128 119.142 170.128 122.838C170.128 126.533 170.327 130.129 170.526 133.824C169.729 130.229 169.431 126.533 169.331 122.838C169.331 119.142 169.431 115.447 170.028 111.852C170.327 110.054 170.626 108.256 171.024 106.458C171.423 104.66 171.821 102.863 172.419 101.065C173.714 97.5693 175.905 94.3733 178.893 92.176Z" fill="#91B3C7"/>
<path d="M35.9626 116.246C37.4566 116.645 38.851 117.345 40.0463 118.243C40.6439 118.743 41.2416 119.242 41.7396 119.742C42.3372 120.241 42.9348 120.64 43.5324 121.14C44.8272 122.039 45.9229 123.137 46.9189 124.236C47.9149 125.435 48.7118 126.933 48.7118 128.431C48.1142 127.033 47.2178 125.934 46.2217 124.835C45.7237 124.236 45.2257 123.737 44.7277 123.137L43.2337 121.44C42.7356 120.84 42.1379 120.341 41.5403 119.941C40.9427 119.542 40.2455 119.142 39.5483 118.843C38.2534 118.044 37.0583 117.245 35.7634 116.346L35.9626 116.246Z" fill="#91B3C7"/>
<path d="M164.849 117.944C167.638 116.646 170.327 116.146 173.016 115.747C173.714 115.747 174.51 115.547 175.506 115.747C176.502 115.846 177.797 116.146 178.893 117.145C179.491 117.644 179.989 118.244 180.287 118.843C180.586 119.442 180.785 120.041 180.885 120.641C181.084 121.739 180.985 122.738 180.885 123.537C180.586 125.035 179.989 126.533 179.291 127.832C178.594 129.13 177.897 130.428 177.299 131.727C176.104 134.323 175.108 136.92 174.012 139.617C173.514 141.015 172.817 142.314 172.12 143.612C171.323 144.91 170.427 146.009 169.431 147.108C167.538 149.305 165.446 151.402 163.056 153C160.666 154.598 158.076 155.797 155.387 156.795C152.697 157.694 149.908 158.393 147.02 158.593L146.721 157.994C148.614 155.697 150.606 153.799 152.697 152.001C154.689 150.204 156.781 148.506 158.773 146.908C160.765 145.31 162.956 143.912 164.948 142.314L167.937 139.917C168.435 139.517 168.933 139.117 169.431 138.718C169.929 138.318 170.427 137.919 170.925 137.42C171.921 136.521 172.817 135.522 173.614 134.423C174.311 133.325 174.909 132.126 175.307 130.828C176.104 128.231 175.506 125.435 175.307 123.038C175.307 122.538 175.108 122.039 175.008 121.839C174.909 121.639 175.008 121.739 175.008 121.839C175.108 121.839 175.008 121.839 174.71 121.639C174.311 121.539 173.813 121.44 173.116 121.34C170.427 120.84 167.737 120.241 164.948 118.843V118.144L164.849 117.944Z" fill="#91B3C7"/>
</svg>
