<svg width="129" height="168" viewBox="0 0 129 168" fill="none" xmlns="http://www.w3.org/2000/svg">
<rect width="129" height="168" rx="36" fill="#736C5F"/>
<path d="M65.567 98.569C67.8823 96.4596 70.8149 92.6523 72.4613 85.5522C72.4613 85.5522 73.3874 78.6065 71.1236 74.4906C71.0722 74.3877 70.9693 74.2333 70.8664 74.079C69.5801 72.2268 67.8308 72.3811 65.7728 71.0949C65.1554 70.7348 64.6924 70.2203 63.7149 69.2942C61.1424 66.7217 61.2453 65.6927 59.5475 64.8181C59.033 64.5608 58.1583 64.3036 56.409 63.7891C55.3286 63.4804 55.0199 63.4289 54.2996 63.2231C51.9844 62.6057 51.9843 62.1427 50.0807 61.5767C47.8169 60.8564 46.685 61.1651 44.9872 59.9818C44.4212 59.6216 44.2669 59.3644 44.1126 59.1071C43.4437 57.718 44.6785 55.4542 46.0162 54.2709C47.1995 53.2419 48.3829 53.0361 50.1836 52.7788C51.9329 52.5216 54.5054 52.1614 57.4895 53.2933C59.9076 54.2194 61.3482 55.6086 62.9431 57.255C65.4641 59.776 66.9047 62.2456 68.2424 64.6637C70.5062 68.7282 71.1751 71.1463 71.278 71.0949C71.4838 70.992 70.0946 61.7311 63.6634 55.8658C61.4511 53.8078 59.3931 52.8817 58.5185 52.5216C53.9909 50.6694 47.0452 50.2064 44.6785 53.7049C43.8553 54.9397 43.6495 56.5347 42.106 57.4093C40.4082 58.3354 39.4821 58.6955 39.4821 58.6955C38.7618 58.9528 38.1959 59.1071 38.093 59.5187C38.0415 59.9303 38.556 60.3419 38.7618 60.4963C42.672 63.6347 43.2379 64.0978 43.8038 64.8181C43.8553 64.921 43.8039 64.818 45.4502 68.2652C45.9647 69.3456 46.3249 70.0659 46.0676 70.7348C45.9133 71.2493 45.5017 71.5065 44.9872 71.8666C44.0611 72.7413 42.8263 74.0275 41.6944 75.8283C41.3343 76.3942 40.1509 78.195 39.2249 80.9218C39.0191 81.4877 37.2698 86.5298 38.1959 87.0957C38.7618 87.4559 39.5335 85.5522 41.643 84.7805C44.4727 83.7515 45.9647 86.2725 49.1032 85.3979C49.3604 85.3465 51.7786 84.6262 52.859 82.3109C53.7336 80.4587 53.322 78.5551 53.0648 77.5776C51.83 72.2268 47.0452 70.3232 46.8908 66.413C46.8908 66.1043 46.8394 64.7666 47.4053 64.5094C47.8169 64.3036 48.1771 64.921 49.0517 65.0239C49.9778 65.0753 50.2865 64.4064 51.2126 64.0977C52.1901 63.7891 52.859 64.2007 54.5054 64.8181C57.0778 65.7441 57.438 65.4354 58.7242 65.9499C61.2453 66.9789 62.583 69.2942 63.8178 71.4551C65.0526 73.6159 67.6765 78.0921 67.2134 83.5457C66.6475 90.2856 61.7083 95.2762 57.2322 98.5176C57.0264 98.7234 56.7691 98.9291 56.5633 99.0835C55.1228 100.421 53.6822 101.862 51.8814 102.736C51.1097 103.354 50.338 103.92 49.5662 104.486C49.2575 104.794 48.9488 105.155 48.6401 105.463C48.5372 105.669 48.3829 105.875 48.28 106.029C48.28 106.029 48.28 106.029 48.28 106.081C48.4343 105.978 48.5372 105.875 48.6916 105.772C50.0293 104.794 50.5952 104.794 50.9554 104.794C53.1162 104.949 55.1228 108.602 54.4025 110.968C53.888 112.615 52.1901 113.181 52.3959 113.695C52.6017 114.21 53.9394 113.952 57.0778 113.695C59.5989 113.489 60.8851 113.386 62.3772 113.438C65.104 113.438 66.3388 113.798 66.4931 113.284C66.6475 112.821 65.6699 112.049 64.2808 110.763C60.988 107.727 59.2902 106.184 59.2387 104.64C59.1358 102.376 62.4801 101.296 65.6185 98.4661M61.0909 111.792C60.5764 112.975 57.438 112.923 56.409 111.277C55.8431 110.402 56.2547 109.528 55.5858 108.036C55.1228 106.904 54.4025 106.235 53.888 105.823C54.2481 105.515 55.0199 104.949 55.946 105.052C56.6663 105.103 57.2322 105.566 58.2612 106.852C60.1134 109.168 61.4511 110.865 61.0395 111.843" fill="#FBF7EE"/>
<path d="M73.3874 83.5971C73.4389 83.6486 73.4903 83.7515 73.5418 83.8029C73.4389 84.266 73.2846 84.729 73.1817 85.2435C72.9759 85.0377 72.7701 84.8319 72.5643 84.6261C72.4614 84.5232 72.4099 84.4203 72.307 84.3174C72.4099 83.8544 72.5643 83.3399 72.6672 82.8768C72.873 83.1341 73.1302 83.3399 73.336 83.5971" fill="#FBF7EE"/>
<path d="M106.521 49.3317C105.389 49.9491 104.617 51.2354 103.794 52.3158C101.633 55.0426 102.765 51.647 102.199 50.4122C101.427 48.9716 99.9869 50.3607 99.0093 51.2354C94.4303 55.5571 90.5716 61.4739 86.5071 65.8471C82.7512 70.0145 78.2237 73.6674 74.8795 78.195C74.3135 78.9667 73.9019 79.7899 73.5417 80.6131C73.799 80.9218 74.0048 81.2305 74.2621 81.5392C74.2621 81.5392 74.3135 81.5906 74.365 81.6421C74.4679 81.4363 74.5707 81.1791 74.6736 80.9733C75.4968 79.1725 76.423 77.8348 77.8121 76.2399C79.6128 74.1305 82.3397 71.1464 83.986 69.7058C84.6034 69.1913 85.2208 68.7797 85.9926 68.5739C87.1245 68.2137 88.3592 67.8021 89.3368 66.979C90.5716 66.0014 91.3948 64.4579 92.3209 63.5833C92.6296 63.2746 93.4528 62.6057 93.5557 63.326C93.5557 64.5094 92.7325 65.6413 92.3723 66.7732C91.8578 68.0594 92.4752 69.2427 92.9383 70.3746C93.2984 71.3007 93.3499 72.2783 93.1441 73.3073C92.8868 74.7479 92.1665 76.0341 91.8578 77.4232C91.6006 78.6066 91.9093 79.8414 91.8578 81.0247C91.9093 82.7225 90.8288 84.6776 91.652 86.0668C92.7839 87.6617 95.768 87.9704 97.6202 88.2791C98.7521 88.4334 100.604 88.4849 101.119 87.4045C101.479 86.6842 101.119 85.8095 100.501 85.295C99.4209 84.3175 97.7745 84.3689 96.1281 84.3175C95.4079 84.3175 94.6361 84.2146 94.0187 84.0088C93.1955 83.7001 92.7325 83.0312 92.8868 82.6196C93.0926 81.9508 94.5847 82.208 95.2535 82.4653C97.3115 82.9283 101.479 83.3914 102.817 81.3334C103.383 80.4073 102.817 79.1725 101.839 78.7609C99.6782 77.8863 96.7455 79.9957 94.4818 80.4588C92.9383 80.8189 92.3723 79.9957 93.5042 79.0696C94.739 78.0921 96.5397 77.4747 97.9803 76.7544C100.347 75.6225 103.743 73.9247 103.228 71.3522C101.891 68.4195 97.6716 74.2333 95.9223 74.6964C93.9672 75.4167 94.6876 73.7189 95.4593 72.9986C97.4658 70.7862 101.736 67.1333 102.662 65.2811C102.817 64.921 102.817 64.6637 102.662 64.4065C102.251 63.9434 101.325 63.5318 101.325 62.7601C101.325 61.834 101.993 60.9079 102.456 60.1362C103.588 58.3869 105.029 57.2035 106.264 55.4542C107.241 54.0137 108.373 52.4702 108.888 50.7723C109.454 48.9716 107.756 48.6115 106.572 49.3832" fill="#FBF7EE"/>
<path d="M75.1367 88.0218C75.9599 87.5073 76.9889 87.5588 77.8635 87.9189C78.7382 88.2276 79.5099 88.7936 80.3331 89.3081C82.6484 90.6972 85.581 91.5718 88.102 90.5943C89.2339 90.1312 90.2115 89.3595 90.9832 88.4334" fill="#FBF7EE"/>
<path d="M38.4016 88.7421C38.0415 91.3145 39.0191 93.9385 40.5111 96.0479C42.0031 98.1573 44.0097 99.9066 45.9133 101.656C46.3249 102.016 46.7365 102.479 46.5821 102.994C46.5821 103.148 46.4278 103.302 46.4278 103.457C46.4278 103.611 46.5307 103.817 46.6851 103.817" fill="#FBF7EE"/>
<path d="M40.614 107.521L29.1922 115.702C31.456 116.834 34.1314 113.386 36.4466 114.415C33.977 119.355 28.4719 122.287 26.1567 127.278C26.0023 127.587 25.8994 127.998 26.1567 128.204C26.2596 128.307 26.4654 128.307 26.6197 128.255C28.8835 128.101 30.8386 126.66 32.5365 125.168C35.7778 122.339 38.6075 119.046 40.9227 115.444C42.3633 113.232 46.6336 107.418 45.4503 104.743C43.701 105.052 42.0032 106.492 40.5626 107.521" fill="#FBF7EE"/>
</svg>
